<svg width="509" height="93" viewBox="0 0 509 93" fill="none" xmlns="http://www.w3.org/2000/svg">
<path d="M0.375 24.125L2.375 17.625C2.45833 17.5417 3.08333 17.4583 4.25 17.375C5.5 17.2083 7.125 17.0417 9.125 16.875C11.125 16.625 13.375 16.375 15.875 16.125C18.375 15.875 20.9167 15.625 23.5 15.375C26.1667 15.125 28.75 14.875 31.25 14.625C33.8333 14.375 36.2083 14.125 38.375 13.875C38.375 13.875 38.75 13.875 39.5 13.875C40.25 13.875 41.0833 13.875 42 13.875C42.9167 13.875 43.7917 13.875 44.625 13.875C45.4583 13.875 46 13.875 46.25 13.875C48.25 13.875 49.625 14.25 50.375 15C51.125 15.75 51.5 17.375 51.5 19.875L28.75 22.5C28.5833 27.75 28.6667 33.25 29 39C29.3333 44.75 29.75 50.5833 30.25 56.5C30.75 62.3333 31.2083 68.125 31.625 73.875C32.125 79.625 32.375 85.125 32.375 90.375C32.375 91.125 32.125 91.6667 31.625 92C31.2083 92.25 30.6667 92.4167 30 92.5C29.4167 92.5833 28.7917 92.5417 28.125 92.375C27.4583 92.2917 26.875 92.1667 26.375 92C26.125 90.9167 25.875 89.0417 25.625 86.375C25.375 83.7083 25.125 80.5833 24.875 77C24.625 73.4167 24.375 69.5417 24.125 65.375C23.875 61.2083 23.625 57.0417 23.375 52.875C23.125 48.7083 22.875 44.75 22.625 41C22.375 37.1667 22.1667 33.8333 22 31C21.8333 28.0833 21.6667 25.8333 21.5 24.25C21.4167 22.6667 21.3333 22.0833 21.25 22.5L0.375 24.125ZM50.25 50.5C50.25 47.75 50.4167 44.8333 50.75 41.75C51.1667 38.6667 51.7917 35.6667 52.625 32.75C53.5417 29.75 54.6667 26.9167 56 24.25C57.4167 21.5 59.0833 19.125 61 17.125C63 15.0417 65.2917 13.4167 67.875 12.25C70.5417 11 73.5417 10.375 76.875 10.375C79.7917 10.375 82.375 11.2083 84.625 12.875C86.875 14.4583 88.8333 16.5833 90.5 19.25C92.1667 21.8333 93.5417 24.7917 94.625 28.125C95.7083 31.4583 96.5833 34.8333 97.25 38.25C98 41.5833 98.5 44.8333 98.75 48C99 51.0833 99.125 53.75 99.125 56C98.7917 60.9167 98.0833 65.4583 97 69.625C95.9167 73.7083 94.4167 77.3333 92.5 80.5C90.6667 83.5833 88.375 86.125 85.625 88.125C82.875 90.125 79.5417 91.4583 75.625 92.125C71.875 92.125 68.6667 91.4583 66 90.125C63.3333 88.7917 61.0417 87.0417 59.125 84.875C57.2083 82.7083 55.6667 80.2083 54.5 77.375C53.3333 74.5417 52.4167 71.5833 51.75 68.5C51.1667 65.4167 50.75 62.3333 50.5 59.25C50.3333 56.0833 50.25 53.1667 50.25 50.5ZM55 50.5C55 52.5 55.0417 54.75 55.125 57.25C55.2083 59.75 55.4167 62.2917 55.75 64.875C56.1667 67.375 56.75 69.875 57.5 72.375C58.25 74.7917 59.25 76.9583 60.5 78.875C61.8333 80.7083 63.4583 82.2083 65.375 83.375C67.375 84.5417 69.75 85.125 72.5 85.125C76.5 85.375 79.7917 84.875 82.375 83.625C84.9583 82.375 87.0417 80.4583 88.625 77.875C90.2083 75.2917 91.4167 72.1667 92.25 68.5C93.0833 64.8333 93.75 60.6667 94.25 56C94.25 54.1667 94.1667 51.875 94 49.125C93.8333 46.375 93.5 43.5 93 40.5C92.5833 37.5 91.9583 34.5 91.125 31.5C90.375 28.4167 89.3333 25.6667 88 23.25C86.75 20.75 85.2083 18.75 83.375 17.25C81.625 15.75 79.5 15 77 15C74.4167 15 72.0833 15.625 70 16.875C67.9167 18.0417 66.0417 19.625 64.375 21.625C62.7917 23.5417 61.375 25.75 60.125 28.25C58.9583 30.75 58 33.3333 57.25 36C56.5 38.5833 55.9167 41.1667 55.5 43.75C55.1667 46.25 55 48.5 55 50.5ZM156 29.625C155.833 29.4583 155.625 29.1667 155.375 28.75C155.125 28.3333 154.875 27.875 154.625 27.375C154.375 26.7917 154.125 26.2917 153.875 25.875C153.708 25.375 153.625 25 153.625 24.75C153.625 24 153.958 23.4167 154.625 23C155.292 22.5833 156.042 22.3333 156.875 22.25C157.708 22.1667 158.5 22.125 159.25 22.125C160.083 22.125 160.583 22.125 160.75 22.125C161 22.125 161.333 22.1667 161.75 22.25C162.25 22.25 162.75 22.2917 163.25 22.375C163.833 22.375 164.333 22.4167 164.75 22.5C165.167 22.5 165.458 22.5 165.625 22.5C168.375 23.5 171.5 24.6667 175 26C178.583 27.3333 182.25 28.875 186 30.625C189.75 32.375 193.417 34.375 197 36.625C200.583 38.7917 203.792 41.2917 206.625 44.125C209.458 46.875 211.75 49.9167 213.5 53.25C215.25 56.5833 216.125 60.2917 216.125 64.375C216.125 67.875 215.458 71.0417 214.125 73.875C212.792 76.625 211 79.0417 208.75 81.125C206.583 83.125 204.042 84.875 201.125 86.375C198.208 87.7917 195.208 88.9583 192.125 89.875C189.125 90.7083 186.083 91.3333 183 91.75C179.917 92.1667 177.042 92.375 174.375 92.375C173.792 92.375 172.792 92.3333 171.375 92.25C169.958 92.25 168.5 92.2083 167 92.125C165.5 92.0417 164.125 92 162.875 92C161.708 91.9167 161.083 91.875 161 91.875L160.75 87.25L156 29.625ZM163.125 29C163.125 29.1667 163.125 29.5 163.125 30C163.125 30.5 163.125 31.0833 163.125 31.75C163.208 32.3333 163.25 32.875 163.25 33.375C163.25 33.875 163.25 34.25 163.25 34.5C163.333 35.75 163.417 37.75 163.5 40.5C163.667 43.25 163.792 46.375 163.875 49.875C164.042 53.375 164.208 57.0417 164.375 60.875C164.625 64.625 164.833 68.25 165 71.75C165.167 75.1667 165.292 78.2917 165.375 81.125C165.542 83.875 165.625 85.9167 165.625 87.25C166.125 87.25 166.917 87.2917 168 87.375C169.167 87.375 170.375 87.4167 171.625 87.5C172.875 87.5 174.042 87.5417 175.125 87.625C176.292 87.625 177.125 87.625 177.625 87.625C181.458 87.625 185.25 87.1667 189 86.25C192.75 85.25 196.083 83.7917 199 81.875C202 79.875 204.417 77.3333 206.25 74.25C208.167 71.0833 209.125 67.2917 209.125 62.875C209.125 59.625 208.375 56.5417 206.875 53.625C205.375 50.625 203.375 47.875 200.875 45.375C198.458 42.875 195.667 40.625 192.5 38.625C189.333 36.625 186.042 34.9167 182.625 33.5C179.292 32 175.917 30.875 172.5 30.125C169.167 29.375 166.042 29 163.125 29ZM220.75 50.5C220.75 47.75 220.917 44.8333 221.25 41.75C221.667 38.6667 222.292 35.6667 223.125 32.75C224.042 29.75 225.167 26.9167 226.5 24.25C227.917 21.5 229.583 19.125 231.5 17.125C233.5 15.0417 235.792 13.4167 238.375 12.25C241.042 11 244.042 10.375 247.375 10.375C250.292 10.375 252.875 11.2083 255.125 12.875C257.375 14.4583 259.333 16.5833 261 19.25C262.667 21.8333 264.042 24.7917 265.125 28.125C266.208 31.4583 267.083 34.8333 267.75 38.25C268.5 41.5833 269 44.8333 269.25 48C269.5 51.0833 269.625 53.75 269.625 56C269.292 60.9167 268.583 65.4583 267.5 69.625C266.417 73.7083 264.917 77.3333 263 80.5C261.167 83.5833 258.875 86.125 256.125 88.125C253.375 90.125 250.042 91.4583 246.125 92.125C242.375 92.125 239.167 91.4583 236.5 90.125C233.833 88.7917 231.542 87.0417 229.625 84.875C227.708 82.7083 226.167 80.2083 225 77.375C223.833 74.5417 222.917 71.5833 222.25 68.5C221.667 65.4167 221.25 62.3333 221 59.25C220.833 56.0833 220.75 53.1667 220.75 50.5ZM225.5 50.5C225.5 52.5 225.542 54.75 225.625 57.25C225.708 59.75 225.917 62.2917 226.25 64.875C226.667 67.375 227.25 69.875 228 72.375C228.75 74.7917 229.75 76.9583 231 78.875C232.333 80.7083 233.958 82.2083 235.875 83.375C237.875 84.5417 240.25 85.125 243 85.125C247 85.375 250.292 84.875 252.875 83.625C255.458 82.375 257.542 80.4583 259.125 77.875C260.708 75.2917 261.917 72.1667 262.75 68.5C263.583 64.8333 264.25 60.6667 264.75 56C264.75 54.1667 264.667 51.875 264.5 49.125C264.333 46.375 264 43.5 263.5 40.5C263.083 37.5 262.458 34.5 261.625 31.5C260.875 28.4167 259.833 25.6667 258.5 23.25C257.25 20.75 255.708 18.75 253.875 17.25C252.125 15.75 250 15 247.5 15C244.917 15 242.583 15.625 240.5 16.875C238.417 18.0417 236.542 19.625 234.875 21.625C233.292 23.5417 231.875 25.75 230.625 28.25C229.458 30.75 228.5 33.3333 227.75 36C227 38.5833 226.417 41.1667 226 43.75C225.667 46.25 225.5 48.5 225.5 50.5ZM329.5 8L334.25 87.25C341.667 87.25 349.083 86.7917 356.5 85.875C364 84.875 371.667 83.9583 379.5 83.125L380 87.25C379.917 87.25 379.125 87.375 377.625 87.625C376.208 87.7917 374.292 88.0417 371.875 88.375C369.542 88.625 366.875 88.9167 363.875 89.25C360.875 89.5833 357.875 89.9167 354.875 90.25C351.875 90.5833 349 90.9167 346.25 91.25C343.5 91.5833 341.125 91.8333 339.125 92C339.042 92 338.833 92 338.5 92C338.167 92.0833 337.792 92.125 337.375 92.125C336.958 92.125 336.542 92.125 336.125 92.125C335.708 92.125 335.375 92.125 335.125 92.125C333.292 92.125 331.792 91.1667 330.625 89.25C329.458 87.25 328.5 84.5833 327.75 81.25C327 77.8333 326.458 73.9583 326.125 69.625C325.792 65.2083 325.542 60.625 325.375 55.875C325.208 51.125 325.125 46.3333 325.125 41.5C325.208 36.6667 325.25 32.125 325.25 27.875C325.25 23.5417 325.208 19.625 325.125 16.125C325.125 12.625 325 9.91667 324.75 8H329.5ZM384.75 4.125C384.75 3.125 385.083 2.33333 385.75 1.75C386.5 1.08333 387.375 0.75 388.375 0.75C388.458 0.75 388.667 0.75 389 0.75C389.333 0.75 389.542 0.75 389.625 0.75C390.042 7.75 390.417 14.4167 390.75 20.75C391.083 27 391.333 33.1667 391.5 39.25C391.75 45.3333 391.917 51.4167 392 57.5C392.083 63.5 392.125 69.7917 392.125 76.375C392.125 77.2917 392.167 78.5417 392.25 80.125C392.417 81.7083 392.542 83.25 392.625 84.75C392.792 86.25 392.917 87.625 393 88.875C393.167 90.0417 393.25 90.6667 393.25 90.75L387.875 91.75C387.708 88.3333 387.542 84.4167 387.375 80C387.208 75.5 387.042 70.75 386.875 65.75C386.792 60.6667 386.667 55.4583 386.5 50.125C386.417 44.7083 386.25 39.375 386 34.125C385.833 28.875 385.625 23.8333 385.375 19C385.208 14.0833 385 9.625 384.75 5.625V4.125ZM402.125 82.5C402.542 81.5 403.167 80.875 404 80.625C404.917 80.375 405.875 81 406.875 82.5C406.875 82.6667 407.25 82.9167 408 83.25C408.833 83.5 409.833 83.8333 411 84.25C412.25 84.5833 413.667 84.9583 415.25 85.375C416.917 85.7083 418.542 86.0417 420.125 86.375C421.708 86.625 423.25 86.875 424.75 87.125C426.25 87.2917 427.542 87.375 428.625 87.375C431.458 87.375 434.042 86.7917 436.375 85.625C438.792 84.375 440.833 82.7917 442.5 80.875C444.25 78.9583 445.583 76.7917 446.5 74.375C447.417 71.875 447.875 69.3333 447.875 66.75C447.875 66 447.75 64.7083 447.5 62.875C447.25 60.9583 446.833 59.0833 446.25 57.25C445.667 55.3333 444.875 53.625 443.875 52.125C442.958 50.625 441.833 49.875 440.5 49.875C431.833 50.875 424.708 51.2917 419.125 51.125C413.625 50.875 409.25 50.2083 406 49.125C402.75 48.0417 400.458 46.5833 399.125 44.75C397.875 42.8333 397.208 40.6667 397.125 38.25C397.125 35.25 397.875 32.375 399.375 29.625C400.875 26.7917 402.792 24.2917 405.125 22.125C407.458 19.9583 410.042 18.25 412.875 17C415.792 15.6667 418.667 15 421.5 15C423.833 15 426.25 15.2917 428.75 15.875C431.333 16.4583 433.708 17.375 435.875 18.625C438.042 19.7917 439.792 21.375 441.125 23.375C442.542 25.2917 443.25 27.625 443.25 30.375C441.25 30.375 439.417 29.8333 437.75 28.75C436.083 27.5833 434.417 26.375 432.75 25.125C431.083 23.875 429.333 22.7083 427.5 21.625C425.667 20.4583 423.542 19.875 421.125 19.875C419.125 19.875 417.083 20.375 415 21.375C413 22.375 411.167 23.6667 409.5 25.25C407.917 26.8333 406.583 28.625 405.5 30.625C404.5 32.5417 404 34.5417 404 36.625C404 37.4583 404 38.375 404 39.375C404.083 40.2917 404.292 41.2083 404.625 42.125C404.958 42.9583 405.458 43.6667 406.125 44.25C406.875 44.8333 407.917 45.125 409.25 45.125H442.875C444.292 45.125 445.5 45.5833 446.5 46.5C447.583 47.3333 448.458 48.4167 449.125 49.75C449.875 51.0833 450.458 52.5833 450.875 54.25C451.375 55.9167 451.75 57.5417 452 59.125C452.333 60.7083 452.542 62.2083 452.625 63.625C452.708 64.9583 452.75 66 452.75 66.75C452.75 70 452.292 73.0833 451.375 76C450.458 78.8333 449.083 81.4167 447.25 83.75C445.417 86 443.125 87.875 440.375 89.375C437.625 90.7917 434.458 91.6667 430.875 92C429.125 92.1667 426.833 92.125 424 91.875C421.25 91.625 418.458 91.1667 415.625 90.5C412.792 89.75 410.125 88.75 407.625 87.5C405.125 86.1667 403.292 84.5 402.125 82.5ZM457.125 24.125L459.125 17.625C459.208 17.5417 459.833 17.4583 461 17.375C462.25 17.2083 463.875 17.0417 465.875 16.875C467.875 16.625 470.125 16.375 472.625 16.125C475.125 15.875 477.667 15.625 480.25 15.375C482.917 15.125 485.5 14.875 488 14.625C490.583 14.375 492.958 14.125 495.125 13.875C495.125 13.875 495.5 13.875 496.25 13.875C497 13.875 497.833 13.875 498.75 13.875C499.667 13.875 500.542 13.875 501.375 13.875C502.208 13.875 502.75 13.875 503 13.875C505 13.875 506.375 14.25 507.125 15C507.875 15.75 508.25 17.375 508.25 19.875L485.5 22.5C485.333 27.75 485.417 33.25 485.75 39C486.083 44.75 486.5 50.5833 487 56.5C487.5 62.3333 487.958 68.125 488.375 73.875C488.875 79.625 489.125 85.125 489.125 90.375C489.125 91.125 488.875 91.6667 488.375 92C487.958 92.25 487.417 92.4167 486.75 92.5C486.167 92.5833 485.542 92.5417 484.875 92.375C484.208 92.2917 483.625 92.1667 483.125 92C482.875 90.9167 482.625 89.0417 482.375 86.375C482.125 83.7083 481.875 80.5833 481.625 77C481.375 73.4167 481.125 69.5417 480.875 65.375C480.625 61.2083 480.375 57.0417 480.125 52.875C479.875 48.7083 479.625 44.75 479.375 41C479.125 37.1667 478.917 33.8333 478.75 31C478.583 28.0833 478.417 25.8333 478.25 24.25C478.167 22.6667 478.083 22.0833 478 22.5L457.125 24.125Z" fill="#FAF0E6"/>
</svg>
